<svg version="1.1" preserveAspectRatio="none" xmlns="http://www.w3.org/2000/svg" width="500" height="500" viewBox="0 0 500 500"><rect width="100%" height="100%" fill="#008858" fill-opacity="1"/><svg viewBox="56.3988 202.7467 397.6269 94" width="333" height="78.72203817196473" x="83.5px" y="210.639px" xmlns="http://www.w3.org/2000/svg" xmlns:xlink="http://www.w3.org/1999/xlink" preserveAspectRatio="none"><defs></defs><style>.companyName {fill:#EBE7D9;fill-opacity:1;}.icon1 {fill:#FDEAA0;fill-opacity:1;}.icon3-str {stroke:#3E5C6D;stroke-opacity:1;}.shapeStroke-str {stroke:#EBE7D9;stroke-opacity:1;}</style><g opacity="1" transform="rotate(0 56.3988 262.7467)">
<svg width="397.6269" height="2" x="56.3988" y="262.7467" version="1.1" preserveAspectRatio="none" viewBox="0 0 397.6269 2">
  <defs><rect x="0" y="0" width="397.6269" height="2" rx="4%" ry="4%" id="id-UPl23ini1700055437745"></rect></defs><use class="icon1 shapeStroke-str" style="stroke-width:0;" xlink:href="#id-UPl23ini1700055437745"></use>
</svg>
</g><g opacity="1" transform="rotate(0 114.3394 274.7467)">
<svg width="281.7458" height="22" x="114.3394" y="274.7467" version="1.1" preserveAspectRatio="none" viewBox="0.2 -31.24 510.71999999999997 39.879999999999995">
  <g transform="matrix(1 0 0 1 0 0)" class="icon1"><path id="id-6izo4zJp23" d="M24.36-31.24Q24.96-31.24 25.34-30.82Q25.72-30.40 25.72-29.80L25.72-29.80Q25.72-29.24 25.44-28.80L25.44-28.80L14.52-11.56L14.52-1.56Q14.52-0.92 14.08-0.46Q13.64 0 12.96 0L12.96 0Q12.32 0 11.86-0.46Q11.40-0.92 11.40-1.56L11.40-1.56L11.40-11.56L0.52-28.80Q0.20-29.32 0.20-29.80L0.20-29.80Q0.20-30.40 0.64-30.82Q1.08-31.24 1.72-31.24L1.72-31.24Q2.16-31.24 2.46-31.06Q2.76-30.88 3.04-30.48L3.04-30.48L13-14.44L22.92-30.40Q23.24-30.84 23.56-31.04Q23.88-31.24 24.36-31.24L24.36-31.24Z M37.08-22.08Q40.24-22.08 42.76-20.64Q45.28-19.20 46.74-16.64Q48.20-14.08 48.20-10.92L48.20-10.92Q48.20-7.76 46.76-5.22Q45.32-2.68 42.78-1.24Q40.24 0.20 37.08 0.20L37.08 0.20Q33.92 0.20 31.38-1.24Q28.84-2.68 27.40-5.22Q25.96-7.76 25.96-10.92L25.96-10.92Q25.96-14.08 27.40-16.64Q28.84-19.20 31.38-20.64Q33.92-22.08 37.08-22.08L37.08-22.08ZM37.08-19.28Q34.80-19.28 32.94-18.20Q31.08-17.12 30.02-15.22Q28.96-13.32 28.96-10.92L28.96-10.92Q28.96-8.56 30.02-6.66Q31.08-4.76 32.94-3.68Q34.80-2.60 37.08-2.60L37.08-2.60Q39.40-2.60 41.24-3.68Q43.08-4.76 44.12-6.66Q45.16-8.56 45.16-10.92L45.16-10.92Q45.16-13.32 44.12-15.22Q43.08-17.12 41.24-18.20Q39.40-19.28 37.08-19.28L37.08-19.28Z M74.12-21.88Q74.80-21.88 75.24-21.46Q75.68-21.04 75.68-20.36L75.68-20.36L75.68-1.56Q75.68-0.88 75.24-0.44Q74.80 0 74.12 0L74.12 0Q73.44 0 73.02-0.44Q72.60-0.88 72.60-1.56L72.60-1.56L72.60-2.92Q71.28-1.44 69.40-0.60Q67.52 0.24 65.32 0.24L65.32 0.24Q62.48 0.24 60.22-0.96Q57.96-2.16 56.68-4.46Q55.40-6.76 55.40-9.96L55.40-9.96L55.40-20.36Q55.40-21 55.84-21.44Q56.28-21.88 56.92-21.88L56.92-21.88Q57.60-21.88 58.04-21.44Q58.48-21 58.48-20.36L58.48-20.36L58.48-9.96Q58.48-6.40 60.46-4.54Q62.44-2.68 65.64-2.68L65.64-2.68Q67.60-2.68 69.18-3.44Q70.76-4.20 71.68-5.54Q72.60-6.88 72.60-8.52L72.60-8.52L72.60-20.36Q72.60-21.04 73.02-21.46Q73.44-21.88 74.12-21.88L74.12-21.88Z M94.36-22.12Q96.04-22.12 97.02-21.68Q98.00-21.24 98.00-20.44L98.00-20.44Q98.00-20.20 97.96-20.08L97.96-20.08Q97.80-19.52 97.46-19.32Q97.12-19.12 96.52-19.12L96.52-19.12Q96.16-19.12 95.28-19.20L95.28-19.20Q94.96-19.24 94.32-19.24L94.32-19.24Q91.32-19.24 89.42-17.64Q87.52-16.04 87.52-13.48L87.52-13.48L87.52-1.52Q87.52-0.80 87.12-0.40Q86.72 0 86.00 0L86.00 0Q85.28 0 84.88-0.40Q84.48-0.80 84.48-1.52L84.48-1.52L84.48-20.36Q84.48-21.08 84.88-21.48Q85.28-21.88 86.00-21.88L86.00-21.88Q86.72-21.88 87.12-21.48Q87.52-21.08 87.52-20.36L87.52-20.36L87.52-18.60Q88.68-20.28 90.48-21.20Q92.28-22.12 94.36-22.12L94.36-22.12Z M141.68-21.88Q142.32-21.88 142.68-21.52Q143.04-21.16 143.04-20.56L143.04-20.56Q143.04-20.08 142.88-19.72L142.88-19.72L136.64-1Q136.48-0.56 136.10-0.28Q135.72 0 135.20 0L135.20 0Q134.68 0 134.26-0.28Q133.84-0.56 133.72-1L133.72-1L128.92-16.92L124.12-1Q123.96-0.52 123.56-0.26Q123.16 0 122.68 0L122.68 0Q122.16 0 121.78-0.28Q121.40-0.56 121.20-1L121.20-1L114.96-19.72Q114.84-20.20 114.84-20.56L114.84-20.56Q114.84-21.88 116.12-21.88L116.12-21.88Q117.24-21.88 117.64-20.72L117.64-20.72L122.76-5.12L127.48-20.68Q127.64-21.24 128.02-21.56Q128.40-21.88 129-21.88L129-21.88Q129.60-21.88 129.98-21.56Q130.36-21.24 130.52-20.68L130.52-20.68L135.12-5.20L140.20-20.72Q140.60-21.88 141.68-21.88L141.68-21.88Z M157.44-22.08Q160.40-22.08 162.68-20.70Q164.96-19.32 166.22-16.88Q167.48-14.44 167.48-11.32L167.48-11.32Q167.48-10.68 167.08-10.30Q166.68-9.92 166.04-9.92L166.04-9.92L149.88-9.92Q150.20-6.64 152.44-4.60Q154.68-2.56 158.04-2.56L158.04-2.56Q159.48-2.56 160.94-3.06Q162.40-3.56 163.28-4.32L163.28-4.32Q163.80-4.72 164.36-4.72L164.36-4.72Q164.80-4.72 165.24-4.40L165.24-4.40Q165.76-3.92 165.76-3.32L165.76-3.32Q165.76-2.80 165.32-2.40L165.32-2.40Q164.00-1.28 161.96-0.54Q159.92 0.20 158.04 0.20L158.04 0.20Q154.84 0.20 152.32-1.22Q149.80-2.64 148.38-5.18Q146.96-7.72 146.96-10.92L146.96-10.92Q146.96-14.16 148.30-16.70Q149.64-19.24 152.02-20.66Q154.40-22.08 157.44-22.08L157.44-22.08ZM157.44-19.32Q154.40-19.32 152.40-17.44Q150.40-15.56 149.96-12.48L149.96-12.48L164.60-12.48Q164.28-15.56 162.36-17.44Q160.44-19.32 157.44-19.32L157.44-19.32Z M173.48-29.72Q173.48-30.40 173.92-30.82Q174.36-31.24 175.00-31.24L175.00-31.24Q175.68-31.24 176.10-30.82Q176.52-30.40 176.52-29.72L176.52-29.72L176.52-6.92Q176.52-5.20 177.22-4.12Q177.92-3.04 179.00-3.04L179.00-3.04L180.00-3.04Q180.60-3.04 180.96-2.62Q181.32-2.20 181.32-1.52L181.32-1.52Q181.32-0.84 180.82-0.42Q180.32 0 179.52 0L179.52 0L179.00 0Q176.56 0 175.02-1.94Q173.48-3.88 173.48-6.92L173.48-6.92L173.48-29.72Z M186.36-29.72Q186.36-30.40 186.80-30.82Q187.24-31.24 187.88-31.24L187.88-31.24Q188.56-31.24 188.98-30.82Q189.40-30.40 189.40-29.72L189.40-29.72L189.40-6.92Q189.40-5.20 190.10-4.12Q190.80-3.04 191.88-3.04L191.88-3.04L192.88-3.04Q193.48-3.04 193.84-2.62Q194.20-2.20 194.20-1.52L194.20-1.52Q194.20-0.84 193.70-0.42Q193.20 0 192.40 0L192.40 0L191.88 0Q189.44 0 187.90-1.94Q186.36-3.88 186.36-6.92L186.36-6.92L186.36-29.72Z M200.08-20.72Q200.04-20.60 200.04-20.36L200.04-20.36L200.04-10.96Q200.04-7.84 201.50-5.28Q202.96-2.72 205.50-1.26Q208.04 0.20 211.16 0.20L211.16 0.20Q214.28 0.20 216.82-1.26Q219.36-2.72 220.82-5.28Q222.28-7.84 222.28-10.96L222.28-10.96Q222.28-14.08 220.86-16.62Q219.44-19.16 216.98-20.62Q214.52-22.08 211.48-22.08L211.48-22.08Q208.88-22.08 206.72-20.98Q204.56-19.88 203.16-17.96L203.16-17.96L203.16-29.68Q203.16-30.36 202.72-30.80Q202.28-31.24 201.60-31.24L201.60-31.24Q200.92-31.24 200.50-30.80Q200.08-30.36 200.08-29.68L200.08-29.68L200.08-20.72ZM211.16-2.60Q208.88-2.60 207.04-3.70Q205.20-4.80 204.14-6.70Q203.08-8.60 203.08-10.96L203.08-10.96Q203.08-11.64 203.12-11.96L203.12-11.96Q203.16-12.04 203.16-12.16L203.16-12.16Q203.56-15.28 205.78-17.28Q208.00-19.28 211.16-19.28L211.16-19.28Q213.44-19.28 215.30-18.20Q217.16-17.12 218.22-15.22Q219.28-13.32 219.28-10.96L219.28-10.96Q219.28-8.60 218.22-6.70Q217.16-4.80 215.30-3.70Q213.44-2.60 211.16-2.60L211.16-2.60Z M239.24-22.08Q242.20-22.08 244.48-20.70Q246.76-19.32 248.02-16.88Q249.28-14.44 249.28-11.32L249.28-11.32Q249.28-10.68 248.88-10.30Q248.48-9.92 247.84-9.92L247.84-9.92L231.68-9.92Q232.00-6.64 234.24-4.60Q236.48-2.56 239.84-2.56L239.84-2.56Q241.28-2.56 242.74-3.06Q244.20-3.56 245.08-4.32L245.08-4.32Q245.60-4.72 246.16-4.72L246.16-4.72Q246.60-4.72 247.04-4.40L247.04-4.40Q247.56-3.92 247.56-3.32L247.56-3.32Q247.56-2.80 247.12-2.40L247.12-2.40Q245.80-1.28 243.76-0.54Q241.72 0.20 239.84 0.20L239.84 0.20Q236.64 0.20 234.12-1.22Q231.60-2.64 230.18-5.18Q228.76-7.72 228.76-10.92L228.76-10.92Q228.76-14.16 230.10-16.70Q231.44-19.24 233.82-20.66Q236.20-22.08 239.24-22.08L239.24-22.08ZM239.24-19.32Q236.20-19.32 234.20-17.44Q232.20-15.56 231.76-12.48L231.76-12.48L246.40-12.48Q246.08-15.56 244.16-17.44Q242.24-19.32 239.24-19.32L239.24-19.32Z M256.72-20.32Q256.72-21 257.16-21.44Q257.60-21.88 258.28-21.88L258.28-21.88Q258.96-21.88 259.38-21.44Q259.80-21 259.80-20.32L259.80-20.32L259.80-1.56Q259.80-0.88 259.38-0.44Q258.96 0 258.28 0L258.28 0Q257.60 0 257.16-0.44Q256.72-0.88 256.72-1.56L256.72-1.56L256.72-20.32ZM258.28-30.40Q259.16-30.40 259.80-29.80Q260.44-29.20 260.44-28.24L260.44-28.24Q260.44-27.32 259.80-26.68Q259.16-26.04 258.24-26.04L258.24-26.04Q257.32-26.04 256.70-26.68Q256.08-27.32 256.08-28.24L256.08-28.24Q256.08-29.20 256.72-29.80Q257.36-30.40 258.28-30.40L258.28-30.40Z M279.60-22.12Q282.44-22.12 284.70-20.92Q286.96-19.72 288.24-17.42Q289.52-15.12 289.52-11.92L289.52-11.92L289.52-1.52Q289.52-0.88 289.08-0.44Q288.64 0 288 0L288 0Q287.32 0 286.88-0.44Q286.44-0.88 286.44-1.52L286.44-1.52L286.44-11.92Q286.44-15.48 284.46-17.34Q282.48-19.20 279.28-19.20L279.28-19.20Q277.32-19.20 275.74-18.44Q274.16-17.68 273.24-16.34Q272.32-15 272.32-13.36L272.32-13.36L272.32-1.52Q272.32-0.84 271.90-0.42Q271.48 0 270.80 0L270.80 0Q270.12 0 269.68-0.42Q269.24-0.84 269.24-1.52L269.24-1.52L269.24-20.32Q269.24-21 269.68-21.44Q270.12-21.88 270.80-21.88L270.80-21.88Q271.48-21.88 271.90-21.44Q272.32-21 272.32-20.32L272.32-20.32L272.32-18.96Q273.64-20.44 275.52-21.28Q277.40-22.12 279.60-22.12L279.60-22.12Z M307.88-22.08Q311.08-22.08 313.60-20.66Q316.12-19.24 317.56-16.70Q319-14.16 319-10.92L319-10.92L319-2.76Q319 0.44 317.58 3.04Q316.16 5.64 313.64 7.14Q311.12 8.64 307.96 8.64L307.96 8.64Q304.88 8.64 302.48 7.48Q300.08 6.32 298.44 4.24L298.44 4.24Q298.08 3.84 298.08 3.32L298.08 3.32Q298.08 2.72 298.64 2.28L298.64 2.28Q299.04 2 299.52 2L299.52 2Q299.88 2 300.24 2.18Q300.60 2.36 300.80 2.64L300.80 2.64Q302 4.16 303.84 5Q305.68 5.84 308 5.84L308 5.84Q310.24 5.84 312.06 4.74Q313.88 3.64 314.92 1.66Q315.96-0.32 315.96-2.88L315.96-2.88L315.96-4.68Q314.76-2.40 312.56-1.10Q310.36 0.20 307.56 0.20L307.56 0.20Q304.44 0.20 301.98-1.22Q299.52-2.64 298.14-5.18Q296.76-7.72 296.76-10.92L296.76-10.92Q296.76-14.16 298.20-16.70Q299.64-19.24 302.18-20.66Q304.72-22.08 307.88-22.08L307.88-22.08ZM307.88-2.60Q310.20-2.60 312.04-3.66Q313.88-4.72 314.92-6.62Q315.96-8.52 315.96-10.92L315.96-10.92Q315.96-13.32 314.92-15.22Q313.88-17.12 312.04-18.20Q310.20-19.28 307.88-19.28L307.88-19.28Q305.52-19.28 303.68-18.20Q301.84-17.12 300.80-15.22Q299.76-13.32 299.76-10.92L299.76-10.92Q299.76-8.52 300.80-6.62Q301.84-4.72 303.68-3.66Q305.52-2.60 307.88-2.60L307.88-2.60Z M327.32-4.08Q328.56-4.08 329.30-3.14Q330.04-2.20 330.04-0.52L330.04-0.52Q330.04 0.96 329.48 2.62Q328.92 4.28 328.02 5.38Q327.12 6.48 326.24 6.48L326.24 6.48Q325.40 6.48 325.40 5.68L325.40 5.68Q325.40 5.32 325.56 4.98Q325.72 4.64 326.08 4.20L326.08 4.20Q326.48 3.60 326.68 3.16Q326.88 2.72 326.88 2.16L326.88 2.16Q326.88 1.52 326.64 1.08Q326.40 0.64 325.92 0.08L325.92 0.08Q325.44-0.48 325.22-0.88Q325-1.28 325-1.88L325-1.88Q325-2.88 325.66-3.48Q326.32-4.08 327.32-4.08L327.32-4.08Z M360.52-22.08Q363.68-22.08 366.20-20.64Q368.72-19.20 370.18-16.64Q371.64-14.08 371.64-10.92L371.64-10.92Q371.64-7.76 370.20-5.22Q368.76-2.68 366.22-1.24Q363.68 0.20 360.52 0.20L360.52 0.20Q357.36 0.20 354.82-1.24Q352.28-2.68 350.84-5.22Q349.40-7.76 349.40-10.92L349.40-10.92Q349.40-14.08 350.84-16.64Q352.28-19.20 354.82-20.64Q357.36-22.08 360.52-22.08L360.52-22.08ZM360.52-19.28Q358.24-19.28 356.38-18.20Q354.52-17.12 353.46-15.22Q352.40-13.32 352.40-10.92L352.40-10.92Q352.40-8.56 353.46-6.66Q354.52-4.76 356.38-3.68Q358.24-2.60 360.52-2.60L360.52-2.60Q362.84-2.60 364.68-3.68Q366.52-4.76 367.56-6.66Q368.60-8.56 368.60-10.92L368.60-10.92Q368.60-13.32 367.56-15.22Q366.52-17.12 364.68-18.20Q362.84-19.28 360.52-19.28L360.52-19.28Z M389.60-22.12Q392.44-22.12 394.70-20.92Q396.96-19.72 398.24-17.42Q399.52-15.12 399.52-11.92L399.52-11.92L399.52-1.52Q399.52-0.88 399.08-0.44Q398.64 0 398.00 0L398.00 0Q397.32 0 396.88-0.44Q396.44-0.88 396.44-1.52L396.44-1.52L396.44-11.92Q396.44-15.48 394.46-17.34Q392.48-19.20 389.28-19.20L389.28-19.20Q387.32-19.20 385.74-18.44Q384.16-17.68 383.24-16.34Q382.32-15 382.32-13.36L382.32-13.36L382.32-1.52Q382.32-0.84 381.90-0.42Q381.48 0 380.80 0L380.80 0Q380.12 0 379.68-0.42Q379.24-0.84 379.24-1.52L379.24-1.52L379.24-20.32Q379.24-21 379.68-21.44Q380.12-21.88 380.80-21.88L380.80-21.88Q381.48-21.88 381.90-21.44Q382.32-21 382.32-20.32L382.32-20.32L382.32-18.96Q383.64-20.44 385.52-21.28Q387.40-22.12 389.60-22.12L389.60-22.12Z M430.88-3.08Q431.52-3.08 431.92-2.64Q432.32-2.20 432.32-1.52L432.32-1.52Q432.32-0.88 431.84-0.44Q431.36 0 430.64 0L430.64 0L429.80 0Q427.68 0 426.00-1.02Q424.32-2.04 423.38-3.78Q422.44-5.52 422.44-7.72L422.44-7.72L422.44-18.40L419.84-18.40Q419.20-18.40 418.82-18.78Q418.44-19.16 418.44-19.72L418.44-19.72Q418.44-20.32 418.82-20.70Q419.20-21.08 419.84-21.08L419.84-21.08L422.44-21.08L422.44-27.28Q422.44-27.96 422.86-28.40Q423.28-28.84 423.96-28.84L423.96-28.84Q424.64-28.84 425.08-28.40Q425.52-27.96 425.52-27.28L425.52-27.28L425.52-21.08L430.04-21.08Q430.68-21.08 431.06-20.70Q431.44-20.32 431.44-19.72L431.44-19.72Q431.44-19.16 431.06-18.78Q430.68-18.40 430.04-18.40L430.04-18.40L425.52-18.40L425.52-7.72Q425.52-5.68 426.72-4.38Q427.92-3.08 429.80-3.08L429.80-3.08L430.88-3.08Z M439.56-20.32Q439.56-21 440.00-21.44Q440.44-21.88 441.12-21.88L441.12-21.88Q441.80-21.88 442.22-21.44Q442.64-21 442.64-20.32L442.64-20.32L442.64-1.56Q442.64-0.88 442.22-0.44Q441.80 0 441.12 0L441.12 0Q440.44 0 440.00-0.44Q439.56-0.88 439.56-1.56L439.56-1.56L439.56-20.32ZM441.12-30.40Q442.00-30.40 442.64-29.80Q443.28-29.20 443.28-28.24L443.28-28.24Q443.28-27.32 442.64-26.68Q442.00-26.04 441.08-26.04L441.08-26.04Q440.16-26.04 439.54-26.68Q438.92-27.32 438.92-28.24L438.92-28.24Q438.92-29.20 439.56-29.80Q440.20-30.40 441.12-30.40L441.12-30.40Z M475.12-22.12Q477.48-22.12 479.30-21Q481.12-19.88 482.14-17.82Q483.16-15.76 483.16-13.04L483.16-13.04L483.16-1.52Q483.16-0.84 482.74-0.42Q482.32 0 481.64 0L481.64 0Q480.96 0 480.52-0.42Q480.08-0.84 480.08-1.52L480.08-1.52L480.08-13.04Q480.08-15.88 478.62-17.54Q477.16-19.20 474.80-19.20L474.80-19.20Q472.28-19.20 470.72-17.52Q469.16-15.84 469.20-13.12L469.20-13.12L469.20-13.04L469.20-1.52Q469.20-0.84 468.78-0.42Q468.36 0 467.68 0L467.68 0Q467.00 0 466.56-0.42Q466.12-0.84 466.12-1.52L466.12-1.52L466.12-13.04Q466.12-15.88 464.66-17.54Q463.20-19.20 460.84-19.20L460.84-19.20Q458.36-19.20 456.76-17.56Q455.16-15.92 455.16-13.36L455.16-13.36L455.16-1.52Q455.16-0.84 454.74-0.42Q454.32 0 453.64 0L453.64 0Q452.96 0 452.52-0.42Q452.08-0.84 452.08-1.52L452.08-1.52L452.08-20.32Q452.08-21 452.52-21.44Q452.96-21.88 453.64-21.88L453.64-21.88Q454.32-21.88 454.74-21.44Q455.16-21 455.16-20.32L455.16-20.32L455.16-19.44Q456.28-20.72 457.82-21.42Q459.36-22.12 461.16-22.12L461.16-22.12Q463.36-22.12 465.12-21.12Q466.88-20.12 467.92-18.32L467.92-18.32Q469.08-20.12 470.94-21.12Q472.80-22.12 475.12-22.12L475.12-22.12Z M500.88-22.08Q503.84-22.08 506.12-20.70Q508.40-19.32 509.66-16.88Q510.92-14.44 510.92-11.32L510.92-11.32Q510.92-10.68 510.52-10.30Q510.12-9.92 509.48-9.92L509.48-9.92L493.32-9.92Q493.64-6.64 495.88-4.60Q498.12-2.56 501.48-2.56L501.48-2.56Q502.92-2.56 504.38-3.06Q505.84-3.56 506.72-4.32L506.72-4.32Q507.24-4.72 507.80-4.72L507.80-4.72Q508.24-4.72 508.68-4.40L508.68-4.40Q509.20-3.92 509.20-3.32L509.20-3.32Q509.20-2.80 508.76-2.40L508.76-2.40Q507.44-1.28 505.40-0.54Q503.36 0.20 501.48 0.20L501.48 0.20Q498.28 0.20 495.76-1.22Q493.24-2.64 491.82-5.18Q490.40-7.72 490.40-10.92L490.40-10.92Q490.40-14.16 491.74-16.70Q493.08-19.24 495.46-20.66Q497.84-22.08 500.88-22.08L500.88-22.08ZM500.88-19.32Q497.84-19.32 495.84-17.44Q493.84-15.56 493.40-12.48L493.40-12.48L508.04-12.48Q507.72-15.56 505.80-17.44Q503.88-19.32 500.88-19.32L500.88-19.32Z"/></g>
</svg>
</g><g opacity="1" transform="rotate(0 56.3988 202.7467)">
<svg width="397.6269" height="50" x="56.3988" y="202.7467" version="1.1" preserveAspectRatio="none" viewBox="2.56 -31.64 254.8 32.04">
  <g transform="matrix(1 0 0 1 0 0)" class="companyName"><path id="id-D6z1nYkh10" d="M18-31.64Q21.04-31.64 23.26-30.84Q25.48-30.04 27.76-28.20L27.76-28.20Q28.24-27.84 28.40-27.46Q28.56-27.08 28.56-26.56L28.56-26.56Q28.56-25.76 27.98-25.24Q27.40-24.72 26.64-24.72L26.64-24.72Q25.88-24.72 25.24-25.24L25.24-25.24Q23.60-26.64 22.04-27.26Q20.48-27.88 18-27.88L18-27.88Q14.88-27.88 12.26-26.24Q9.64-24.60 8.10-21.78Q6.56-18.96 6.56-15.64L6.56-15.64Q6.56-12.28 8.10-9.48Q9.64-6.68 12.26-5.04Q14.88-3.40 18-3.40L18-3.40Q21.84-3.40 25.36-6.04L25.36-6.04Q26.04-6.52 26.68-6.52L26.68-6.52Q27.44-6.52 27.94-5.98Q28.44-5.44 28.44-4.56L28.44-4.56Q28.44-3.72 27.80-3.08L27.80-3.08Q23.48 0.40 18 0.40L18 0.40Q13.72 0.40 10.18-1.72Q6.64-3.84 4.60-7.52Q2.56-11.20 2.56-15.64L2.56-15.64Q2.56-20.04 4.60-23.70Q6.64-27.36 10.18-29.50Q13.72-31.64 18-31.64L18-31.64Z M43-22.04Q46.08-22.04 48.58-20.58Q51.08-19.12 52.54-16.58Q54-14.04 54-10.92L54-10.92L54-2Q54-1.12 53.42-0.54Q52.84 0.04 51.96 0.04L51.96 0.04Q51.08 0.04 50.50-0.54Q49.92-1.12 49.92-2L49.92-2L49.92-3.48Q48.52-1.76 46.52-0.80Q44.52 0.16 42.20 0.16L42.20 0.16Q39.32 0.16 36.98-1.28Q34.64-2.72 33.30-5.26Q31.96-7.80 31.96-10.92L31.96-10.92Q31.96-14.04 33.40-16.58Q34.84-19.12 37.38-20.58Q39.92-22.04 43-22.04L43-22.04ZM43-3.44Q45-3.44 46.62-4.42Q48.24-5.40 49.16-7.10Q50.08-8.80 50.08-10.92L50.08-10.92Q50.08-13.04 49.16-14.76Q48.24-16.48 46.62-17.46Q45-18.44 43-18.44L43-18.44Q41-18.44 39.38-17.46Q37.76-16.48 36.82-14.76Q35.88-13.04 35.88-10.92L35.88-10.92Q35.88-8.80 36.82-7.10Q37.76-5.40 39.38-4.42Q41-3.44 43-3.44L43-3.44Z M70.80-22.12Q72.92-22.12 74.12-21.48Q75.32-20.84 75.32-19.88L75.32-19.88Q75.32-19.60 75.28-19.48L75.28-19.48Q74.92-18.20 73.68-18.20L73.68-18.20Q73.48-18.20 73.08-18.28L73.08-18.28Q71.48-18.56 70.48-18.56L70.48-18.56Q67.60-18.56 65.84-17.24Q64.08-15.92 64.08-13.68L64.08-13.68L64.08-2Q64.08-1.04 63.58-0.52Q63.08 0 62.08 0L62.08 0Q61.12 0 60.60-0.50Q60.08-1 60.08-2L60.08-2L60.08-19.88Q60.08-20.84 60.60-21.36Q61.12-21.88 62.08-21.88L62.08-21.88Q64.08-21.88 64.08-19.88L64.08-19.88L64.08-19.12Q65.28-20.52 67.04-21.32Q68.80-22.12 70.80-22.12L70.80-22.12Z M97.56-11.28Q97.56-10.52 97.04-10.02Q96.52-9.52 95.72-9.52L95.72-9.52L80.52-9.52Q80.96-6.72 83.06-5Q85.16-3.28 88.20-3.28L88.20-3.28Q89.40-3.28 90.70-3.72Q92-4.16 92.84-4.80L92.84-4.80Q93.40-5.24 94.16-5.24L94.16-5.24Q94.92-5.24 95.36-4.84L95.36-4.84Q96.08-4.24 96.08-3.48L96.08-3.48Q96.08-2.76 95.44-2.28L95.44-2.28Q94.08-1.20 92.06-0.52Q90.04 0.16 88.20 0.16L88.20 0.16Q84.92 0.16 82.32-1.26Q79.72-2.68 78.26-5.20Q76.80-7.72 76.80-10.92L76.80-10.92Q76.80-14.12 78.18-16.66Q79.56-19.20 82.02-20.62Q84.48-22.04 87.60-22.04L87.60-22.04Q90.68-22.04 92.92-20.68Q95.16-19.32 96.36-16.88Q97.56-14.44 97.56-11.28L97.56-11.28ZM87.60-18.60Q84.68-18.60 82.86-17Q81.04-15.40 80.56-12.72L80.56-12.72L93.88-12.72Q93.52-15.40 91.88-17Q90.24-18.60 87.60-18.60L87.60-18.60Z M117.60-31.64Q122.20-31.64 125.82-29.60Q129.44-27.56 131.46-23.92Q133.48-20.28 133.48-15.64L133.48-15.64Q133.48-11 131.46-7.34Q129.44-3.68 125.84-1.64Q122.24 0.40 117.60 0.40L117.60 0.40Q112.96 0.40 109.34-1.64Q105.72-3.68 103.72-7.34Q101.72-11 101.72-15.64L101.72-15.64Q101.72-20.28 103.72-23.92Q105.72-27.56 109.34-29.60Q112.96-31.64 117.60-31.64L117.60-31.64ZM117.60-27.88Q114.16-27.88 111.46-26.28Q108.76-24.68 107.24-21.88Q105.72-19.08 105.72-15.64L105.72-15.64Q105.72-12.20 107.24-9.40Q108.76-6.60 111.48-4.98Q114.20-3.36 117.60-3.36L117.60-3.36Q121.00-3.36 123.72-4.98Q126.44-6.60 127.96-9.40Q129.48-12.20 129.48-15.64L129.48-15.64Q129.48-19.08 127.96-21.88Q126.44-24.68 123.74-26.28Q121.04-27.88 117.60-27.88L117.60-27.88Z M150.48-22.08Q153.24-22.08 155.44-20.88Q157.64-19.68 158.88-17.38Q160.12-15.08 160.12-11.84L160.12-11.84L160.12-2Q160.12-1.12 159.54-0.54Q158.96 0.04 158.08 0.04L158.08 0.04Q157.20 0.04 156.62-0.54Q156.04-1.12 156.04-2L156.04-2L156.04-11.84Q156.04-15.08 154.30-16.74Q152.56-18.40 149.68-18.40L149.68-18.40Q148-18.40 146.62-17.72Q145.24-17.04 144.46-15.88Q143.68-14.72 143.68-13.28L143.68-13.28L143.68-2Q143.68-1.12 143.12-0.54Q142.56 0.04 141.64 0.04L141.64 0.04Q140.76 0.04 140.18-0.54Q139.60-1.12 139.60-2L139.60-2L139.60-19.84Q139.60-20.76 140.18-21.32Q140.76-21.88 141.64-21.88L141.64-21.88Q142.56-21.88 143.12-21.32Q143.68-20.76 143.68-19.84L143.68-19.84L143.68-19.40Q144.96-20.68 146.72-21.38Q148.48-22.08 150.48-22.08L150.48-22.08Z M182.40-31.24Q183.24-31.24 183.78-30.70Q184.32-30.16 184.32-29.32L184.32-29.32Q184.32-28.48 183.78-27.94Q183.24-27.40 182.40-27.40L182.40-27.40L173.80-27.40L173.80-2.08Q173.80-1.20 173.20-0.60Q172.60 0 171.72 0L171.72 0Q170.84 0 170.24-0.60Q169.64-1.20 169.64-2.08L169.64-2.08L169.64-27.40L161-27.40Q160.16-27.40 159.62-27.94Q159.08-28.48 159.08-29.32L159.08-29.32Q159.08-30.16 159.62-30.70Q160.16-31.24 161-31.24L161-31.24L182.40-31.24Z M188.52-19.84Q188.52-20.76 189.10-21.32Q189.68-21.88 190.56-21.88L190.56-21.88Q191.48-21.88 192.04-21.32Q192.60-20.76 192.60-19.84L192.60-19.84L192.60-2.04Q192.60-1.16 192.04-0.58Q191.48 0 190.56 0L190.56 0Q189.68 0 189.10-0.58Q188.52-1.16 188.52-2.04L188.52-2.04L188.52-19.84ZM190.56-30.72Q191.64-30.72 192.42-29.94Q193.20-29.16 193.20-28.08L193.20-28.08Q193.20-27 192.42-26.22Q191.64-25.44 190.56-25.44L190.56-25.44Q189.48-25.44 188.70-26.22Q187.92-27 187.92-28.08L187.92-28.08Q187.92-29.16 188.70-29.94Q189.48-30.72 190.56-30.72L190.56-30.72Z M223.20-22.08Q226.68-22.08 228.82-19.80Q230.96-17.52 230.96-13.44L230.96-13.44L230.96-2Q230.96-1.12 230.40-0.54Q229.84 0.04 228.92 0.04L228.92 0.04Q228.04 0.04 227.46-0.54Q226.88-1.12 226.88-2L226.88-2L226.88-13.44Q226.88-15.88 225.66-17.14Q224.44-18.40 222.40-18.40L222.40-18.40Q220.32-18.40 218.98-16.96Q217.64-15.52 217.64-13.28L217.64-13.28L217.64-2Q217.64-1.12 217.08-0.54Q216.52 0.04 215.60 0.04L215.60 0.04Q214.72 0.04 214.14-0.54Q213.56-1.12 213.56-2L213.56-2L213.56-13.44Q213.56-15.88 212.34-17.14Q211.12-18.40 209.08-18.40L209.08-18.40Q206.96-18.40 205.62-16.96Q204.28-15.52 204.28-13.28L204.28-13.28L204.28-2Q204.28-1.12 203.72-0.54Q203.16 0.04 202.24 0.04L202.24 0.04Q201.36 0.04 200.78-0.54Q200.20-1.12 200.20-2L200.20-2L200.20-19.80Q200.20-20.72 200.78-21.28Q201.36-21.84 202.24-21.84L202.24-21.84Q203.12-21.84 203.68-21.30Q204.24-20.76 204.28-19.88L204.28-19.88Q205.32-20.92 206.76-21.50Q208.20-22.08 209.88-22.08L209.88-22.08Q211.92-22.08 213.54-21.26Q215.16-20.44 216.20-18.92L216.20-18.92Q217.40-20.40 219.20-21.24Q221-22.08 223.20-22.08L223.20-22.08Z M257.36-11.28Q257.36-10.52 256.84-10.02Q256.32-9.52 255.52-9.52L255.52-9.52L240.32-9.52Q240.76-6.72 242.86-5Q244.96-3.28 248-3.28L248-3.28Q249.20-3.28 250.50-3.72Q251.80-4.16 252.64-4.80L252.64-4.80Q253.20-5.24 253.96-5.24L253.96-5.24Q254.72-5.24 255.16-4.84L255.16-4.84Q255.88-4.24 255.88-3.48L255.88-3.48Q255.88-2.76 255.24-2.28L255.24-2.28Q253.88-1.20 251.86-0.52Q249.84 0.16 248 0.16L248 0.16Q244.72 0.16 242.12-1.26Q239.52-2.68 238.06-5.20Q236.60-7.72 236.60-10.92L236.60-10.92Q236.60-14.12 237.98-16.66Q239.36-19.20 241.82-20.62Q244.28-22.04 247.40-22.04L247.40-22.04Q250.48-22.04 252.72-20.68Q254.96-19.32 256.16-16.88Q257.36-14.44 257.36-11.28L257.36-11.28ZM247.40-18.60Q244.48-18.60 242.66-17Q240.84-15.40 240.36-12.72L240.36-12.72L253.68-12.72Q253.32-15.40 251.68-17Q250.04-18.60 247.40-18.60L247.40-18.60Z"/></g>
</svg>
</g></svg></svg>